<svg width="40" height="40" viewBox="0 0 40 40" fill="none" xmlns="http://www.w3.org/2000/svg">
<rect width="40" height="40" />
<path d="M35.3532 6.02163C27.1832 6.07488 19.0116 6.11153 10.8427 6.00076C8.332 5.96671 7.25204 7.0652 6.75163 9.28343C5.25846 15.9026 3.52478 22.4704 2.1387 29.112C1.44329 32.4442 3.53827 32.9259 4.53315 32.9321C12.7032 32.9829 20.8746 32.9002 29.0437 32.9993C31.3607 33.0274 32.4748 32.2282 32.9615 29.9886C34.4812 22.9951 36.097 16.0197 37.8149 9.07035C38.3829 6.77286 37.6659 6.00655 35.3532 6.02163ZM11.0083 29.3176C10.8391 29.4288 10.631 29.4832 10.3993 29.5031C9.23104 29.6033 8.36533 28.3879 8.86907 27.3512C8.96826 27.147 9.09167 26.9735 9.25468 26.8502C12.6098 24.3111 16.607 21.4575 20.0926 19.0504C18.2788 17.1107 15.1352 14.0717 13.1969 11.7473C13.0914 11.6208 13.0145 11.4714 12.9581 11.3058C12.5031 9.97098 14.0668 8.72126 15.2497 9.52072C15.3065 9.55911 15.3597 9.60117 15.4087 9.64746C17.9295 12.0261 20.8745 15.1732 23.2865 17.6626C24.4575 18.871 24.3317 19.9547 22.9664 20.914C19.1206 23.6161 14.9378 26.7376 11.0083 29.3176V29.3176ZM27.2784 29.0351C27.2146 29.0644 27.1509 29.1018 27.082 29.1018H19.8888C19.8073 29.1018 19.7317 29.0726 19.656 29.0372C18.7013 28.5906 18.5466 27.3099 19.3058 26.5882C19.536 26.3694 19.9895 26.3947 19.8619 26.3947H26.947C27.1177 26.3947 27.4184 26.4657 27.541 26.5606C28.3811 27.2114 28.2484 28.59 27.2784 29.0351H27.2784Z" fill="#0273B7"/>
</svg>
